<mxfile host="app.diagrams.net" agent="Mozilla/5.0 (Windows NT 10.0; Win64; x64) AppleWebKit/537.36 (KHTML, like Gecko) Chrome/140.0.0.0 Safari/537.36" version="28.2.3">
  <diagram name="Trang-1" id="z3MaLt6IKzk_rKDnDpuN">
    <mxGraphModel dx="786" dy="459" grid="1" gridSize="10" guides="1" tooltips="1" connect="1" arrows="1" fold="1" page="1" pageScale="1" pageWidth="827" pageHeight="1169" math="0" shadow="0">
      <root>
        <mxCell id="0" />
        <mxCell id="1" parent="0" />
        <mxCell id="gWxQjKUJI2yYr7URB9_4-3" value="" style="edgeStyle=orthogonalEdgeStyle;rounded=0;orthogonalLoop=1;jettySize=auto;html=1;" edge="1" parent="1" source="gWxQjKUJI2yYr7URB9_4-1">
          <mxGeometry relative="1" as="geometry">
            <mxPoint x="380" y="170" as="targetPoint" />
          </mxGeometry>
        </mxCell>
        <mxCell id="gWxQjKUJI2yYr7URB9_4-1" value="Bắt đầu" style="ellipse;whiteSpace=wrap;html=1;" vertex="1" parent="1">
          <mxGeometry x="320" y="20" width="120" height="80" as="geometry" />
        </mxCell>
        <mxCell id="gWxQjKUJI2yYr7URB9_4-6" value="" style="edgeStyle=orthogonalEdgeStyle;rounded=0;orthogonalLoop=1;jettySize=auto;html=1;" edge="1" parent="1" source="gWxQjKUJI2yYr7URB9_4-4" target="gWxQjKUJI2yYr7URB9_4-5">
          <mxGeometry relative="1" as="geometry" />
        </mxCell>
        <mxCell id="gWxQjKUJI2yYr7URB9_4-4" value="chọn món ăn ngon miệng từ menu" style="rounded=0;whiteSpace=wrap;html=1;" vertex="1" parent="1">
          <mxGeometry x="320" y="140" width="120" height="60" as="geometry" />
        </mxCell>
        <mxCell id="gWxQjKUJI2yYr7URB9_4-12" style="edgeStyle=orthogonalEdgeStyle;rounded=0;orthogonalLoop=1;jettySize=auto;html=1;" edge="1" parent="1">
          <mxGeometry relative="1" as="geometry">
            <mxPoint x="501" y="330" as="targetPoint" />
            <mxPoint x="420" y="300" as="sourcePoint" />
            <Array as="points">
              <mxPoint x="390" y="300" />
              <mxPoint x="390" y="295" />
              <mxPoint x="501" y="295" />
            </Array>
          </mxGeometry>
        </mxCell>
        <mxCell id="gWxQjKUJI2yYr7URB9_4-22" value="có" style="edgeLabel;html=1;align=center;verticalAlign=middle;resizable=0;points=[];" vertex="1" connectable="0" parent="gWxQjKUJI2yYr7URB9_4-12">
          <mxGeometry x="0.6501" y="-2" relative="1" as="geometry">
            <mxPoint as="offset" />
          </mxGeometry>
        </mxCell>
        <mxCell id="gWxQjKUJI2yYr7URB9_4-29" style="edgeStyle=orthogonalEdgeStyle;rounded=0;orthogonalLoop=1;jettySize=auto;html=1;exitX=0;exitY=0.5;exitDx=0;exitDy=0;entryX=0;entryY=0.25;entryDx=0;entryDy=0;" edge="1" parent="1">
          <mxGeometry relative="1" as="geometry">
            <mxPoint x="320" y="300" as="sourcePoint" />
            <mxPoint x="320" y="160" as="targetPoint" />
            <Array as="points">
              <mxPoint x="220" y="300" />
              <mxPoint x="220" y="160" />
            </Array>
          </mxGeometry>
        </mxCell>
        <mxCell id="gWxQjKUJI2yYr7URB9_4-31" value="Text" style="edgeLabel;html=1;align=center;verticalAlign=middle;resizable=0;points=[];" vertex="1" connectable="0" parent="gWxQjKUJI2yYr7URB9_4-29">
          <mxGeometry x="-0.4373" y="4" relative="1" as="geometry">
            <mxPoint as="offset" />
          </mxGeometry>
        </mxCell>
        <mxCell id="gWxQjKUJI2yYr7URB9_4-5" value="Xác nhận món ăn" style="rhombus;whiteSpace=wrap;html=1;rounded=0;" vertex="1" parent="1">
          <mxGeometry x="320" y="250" width="120" height="90" as="geometry" />
        </mxCell>
        <mxCell id="gWxQjKUJI2yYr7URB9_4-14" style="edgeStyle=orthogonalEdgeStyle;rounded=0;orthogonalLoop=1;jettySize=auto;html=1;" edge="1" parent="1" source="gWxQjKUJI2yYr7URB9_4-13" target="gWxQjKUJI2yYr7URB9_4-15">
          <mxGeometry relative="1" as="geometry">
            <mxPoint x="500" y="420" as="targetPoint" />
          </mxGeometry>
        </mxCell>
        <mxCell id="gWxQjKUJI2yYr7URB9_4-13" value="Cung cấp địa chi" style="shape=parallelogram;perimeter=parallelogramPerimeter;whiteSpace=wrap;html=1;fixedSize=1;" vertex="1" parent="1">
          <mxGeometry x="440" y="330" width="120" height="50" as="geometry" />
        </mxCell>
        <mxCell id="gWxQjKUJI2yYr7URB9_4-16" style="edgeStyle=orthogonalEdgeStyle;rounded=0;orthogonalLoop=1;jettySize=auto;html=1;" edge="1" parent="1" source="gWxQjKUJI2yYr7URB9_4-15" target="gWxQjKUJI2yYr7URB9_4-17">
          <mxGeometry relative="1" as="geometry">
            <mxPoint x="350" y="520" as="targetPoint" />
          </mxGeometry>
        </mxCell>
        <mxCell id="gWxQjKUJI2yYr7URB9_4-15" value="Thanh toán" style="rounded=1;whiteSpace=wrap;html=1;" vertex="1" parent="1">
          <mxGeometry x="440" y="420" width="120" height="60" as="geometry" />
        </mxCell>
        <mxCell id="gWxQjKUJI2yYr7URB9_4-19" value="" style="edgeStyle=orthogonalEdgeStyle;rounded=0;orthogonalLoop=1;jettySize=auto;html=1;" edge="1" parent="1" source="gWxQjKUJI2yYr7URB9_4-17" target="gWxQjKUJI2yYr7URB9_4-18">
          <mxGeometry relative="1" as="geometry" />
        </mxCell>
        <mxCell id="gWxQjKUJI2yYr7URB9_4-17" value="Nhập món ăn" style="rounded=1;whiteSpace=wrap;html=1;" vertex="1" parent="1">
          <mxGeometry x="290" y="490" width="120" height="60" as="geometry" />
        </mxCell>
        <mxCell id="gWxQjKUJI2yYr7URB9_4-18" value="Kết thúc" style="ellipse;whiteSpace=wrap;html=1;rounded=1;" vertex="1" parent="1">
          <mxGeometry x="303.75" y="610" width="92.5" height="60" as="geometry" />
        </mxCell>
        <mxCell id="gWxQjKUJI2yYr7URB9_4-30" style="edgeStyle=orthogonalEdgeStyle;rounded=0;orthogonalLoop=1;jettySize=auto;html=1;" edge="1" parent="1" source="gWxQjKUJI2yYr7URB9_4-5" target="gWxQjKUJI2yYr7URB9_4-5">
          <mxGeometry relative="1" as="geometry" />
        </mxCell>
      </root>
    </mxGraphModel>
  </diagram>
</mxfile>
